<svg width="140" height="139" viewBox="0 0 140 139" fill="none" xmlns="http://www.w3.org/2000/svg">
<path d="M137.485 119.086C136.616 118.024 136.229 116.623 136.519 115.27C136.857 113.579 137.002 111.84 136.954 110.149C136.761 100.777 130.964 92.7099 122.751 89.1834C125.167 82.8067 126.375 76.0919 126.375 69.1838C126.375 61.8892 125.022 54.7879 122.317 48.1214C124.974 46.0924 126.858 43.1939 127.631 39.8606C130.046 39.3776 132.123 37.9283 133.428 35.8511C135.795 31.9864 137.002 27.5903 136.906 23.001C136.809 18.1702 135.215 13.5809 132.316 9.66794C131.64 8.75009 130.384 8.55685 129.466 9.23317C128.548 9.90949 128.355 11.1655 129.032 12.0834C131.399 15.32 132.703 19.1364 132.8 23.0977C132.896 26.8657 131.882 30.5371 129.901 33.6772C129.418 34.4501 128.742 35.0781 127.92 35.4646V25.3198C127.92 21.2619 124.635 17.977 120.626 17.8804C120.674 17.6871 120.674 17.4456 120.722 17.2524C120.867 16.1413 120.094 15.1268 118.983 14.9336C117.872 14.7886 116.858 15.5616 116.713 16.6727C116.085 21.3586 113.621 24.402 109.177 25.8995C105.409 27.2039 101.351 27.0106 99.805 26.8174C98.6939 26.7208 97.6794 27.542 97.5828 28.6531C97.4862 29.6193 98.1142 30.5371 99.0321 30.7787V35.368C98.2108 34.9815 97.5345 34.3535 97.0031 33.5323C95.1191 30.4888 94.1529 27.0106 94.1529 23.4358C94.1529 18.1702 96.2302 13.2911 99.9982 9.61964C103.766 5.9482 108.742 4.01587 113.959 4.11249C117.003 4.1608 119.901 4.93373 122.607 6.43129C123.621 6.96268 124.829 6.57621 125.36 5.61005C125.891 4.59557 125.505 3.38786 124.539 2.85647C121.302 1.11737 117.679 0.151206 114.056 0.0545896C107.679 -0.0903354 101.689 2.27677 97.0997 6.72114C94.2012 9.52302 92.124 13.0012 91.0129 16.721C84.2497 13.9674 77.1001 12.5664 69.7572 12.5664C62.366 12.5664 55.2164 13.9674 48.5015 16.721C47.4388 13.0495 45.4098 9.66794 42.6562 6.91437C38.3568 2.61493 32.6564 0.151206 26.6662 0.00628127C20.2895 -0.138644 14.251 2.22846 9.70997 6.67283C5.16899 11.1172 2.65696 17.0591 2.65696 23.4358C2.65696 27.7836 3.86467 31.9864 6.08685 35.6578C7.39117 37.7834 9.51674 39.2809 11.9322 39.764C12.7051 43.0973 14.5891 45.9958 17.2461 48.0247C14.5408 54.7396 13.1882 61.7926 13.1882 69.0872C13.1882 75.9953 14.3959 82.7101 16.8113 89.0868C14.9756 89.8597 13.2848 90.8742 11.6906 92.0819C10.8211 92.7583 10.6278 94.0626 11.3525 94.9321C12.0288 95.8017 13.3331 95.9949 14.2026 95.2703C17.8741 92.4201 22.4151 91.0191 27.0527 91.2607C37.1008 91.7921 45.1683 100.053 45.3615 110.149C45.4098 111.598 45.2649 112.999 44.975 114.4C44.4436 116.961 45.12 119.569 46.8108 121.598C47.5837 122.564 48.0185 123.724 48.0185 124.98C48.0185 127.927 45.6514 130.294 42.7046 130.294H38.9365C39.951 128.313 40.5307 126.091 40.5307 123.676V112.323C40.5307 108.265 37.2457 104.98 33.2361 104.884C33.2844 104.69 33.2844 104.449 33.3327 104.256C33.4777 103.145 32.7047 102.13 31.5936 101.937C30.4825 101.792 29.4681 102.565 29.2748 103.676C28.8401 106.961 27.5357 109.376 25.2169 111.115C20.048 114.98 11.7872 113.772 11.6906 113.772C10.5795 113.579 9.51674 114.352 9.37181 115.463C9.17858 116.574 9.95151 117.637 11.0626 117.782C11.1109 117.782 11.2558 117.83 11.5457 117.83V123.579C11.5457 125.946 12.1254 128.217 13.1399 130.197H9.37181C6.42501 130.197 4.0579 127.83 4.0579 124.883C4.0579 123.627 4.49267 122.468 5.26561 121.502C6.90809 119.473 7.58441 116.816 7.05301 114.159C6.81147 112.951 6.71486 111.695 6.71486 110.487C6.71486 107.444 7.39117 104.497 8.79211 101.792C9.32351 100.777 8.88873 99.5697 7.87426 99.0383C6.85978 98.5069 5.65207 98.9417 5.12068 99.9562C3.4782 103.386 2.65696 106.961 2.65696 110.632C2.65696 112.13 2.80188 113.627 3.09173 115.125C3.38158 116.574 3.04342 118.024 2.12557 119.086C0.724625 120.777 0 122.903 0 125.077C0 130.294 4.20282 134.497 9.42012 134.497H16.3282C18.8886 136.864 22.3184 138.313 26.0865 138.313C29.8545 138.313 33.2844 136.864 35.8448 134.497H42.7529C47.9702 134.497 52.173 130.294 52.173 125.077C52.173 124.304 52.0764 123.579 51.8831 122.854C57.6318 124.787 63.622 125.753 69.7572 125.753C75.8924 125.753 81.8826 124.787 87.6313 122.854C87.438 123.579 87.3414 124.304 87.3414 125.077C87.3414 130.294 91.5443 134.497 96.7616 134.497H103.67C106.23 136.864 109.66 138.313 113.428 138.313C117.196 138.313 120.626 136.864 123.186 134.497H130.094C135.312 134.497 139.514 130.294 139.514 125.077C139.611 122.854 138.838 120.729 137.485 119.086ZM15.7002 123.772V118.217C19.1784 118.12 23.9126 117.395 27.6807 114.594C29.613 113.144 31.0622 111.309 32.0767 109.135H33.1395C34.9752 109.135 36.4728 110.632 36.4728 112.468V123.82C36.4728 129.569 31.7869 134.207 26.0865 134.207C20.3861 134.207 15.7002 129.521 15.7002 123.772ZM110.529 29.7642C114.781 28.315 117.824 25.6097 119.466 21.8899H120.529C122.365 21.8899 123.863 23.3875 123.863 25.2232V36.5757C123.863 42.3244 119.177 46.962 113.476 46.962C107.776 46.962 103.09 42.2761 103.09 36.5757V31.0202C105.264 30.9236 107.921 30.6338 110.529 29.7642ZM9.61335 33.5323C7.72933 30.4888 6.76316 27.0106 6.76316 23.4358C6.76316 18.1702 8.84042 13.2911 12.6085 9.61964C16.3765 5.9482 21.304 4.01587 26.5696 4.11249C31.5453 4.20911 36.2312 6.23805 39.7577 9.81287C43.2843 13.3877 45.3132 18.0736 45.4098 23.0494C45.5064 26.8174 44.492 30.4888 42.5113 33.6289C42.0282 34.4018 41.3519 35.0298 40.5307 35.4163V25.2715C40.5307 21.2136 37.2457 17.9287 33.2361 17.8321C33.2844 17.6388 33.2844 17.3973 33.3327 17.204C33.4777 16.093 32.7047 15.0785 31.5936 14.8852C30.4825 14.7403 29.4681 15.5133 29.3231 16.6243C28.6951 21.3103 26.2314 24.3537 21.7871 25.8512C18.019 27.1556 13.9611 26.9623 12.4152 26.7691C11.3041 26.6725 10.2897 27.4937 10.1931 28.6048C10.0964 29.571 10.7244 30.4888 11.6423 30.7304V35.3197C10.7728 34.9815 10.0964 34.3535 9.61335 33.5323ZM15.7002 36.5757V31.0202C17.8258 30.9719 20.531 30.6338 23.1397 29.7642C27.3908 28.315 30.4342 25.6097 32.0767 21.8899H33.1395C34.9752 21.8899 36.4728 23.3875 36.4728 25.2232V36.5757C36.4728 42.3244 31.7869 46.962 26.0865 46.962C20.3378 46.962 15.7002 42.3244 15.7002 36.5757ZM49.1779 117.395C48.9846 116.719 48.9363 115.946 49.0812 115.222C49.4194 113.531 49.5643 111.792 49.516 110.101C49.2262 97.8789 39.4679 87.8791 27.2942 87.2511C25.072 87.1545 22.8498 87.3477 20.7243 87.8308C18.4538 81.8889 17.2944 75.5605 17.2944 69.1355C17.2944 62.5656 18.5021 56.1405 20.8692 50.102C22.4634 50.73 24.2508 51.0682 26.0865 51.0682C32.9946 51.0682 38.7433 46.2373 40.1925 39.8123C42.6079 39.3293 44.6852 37.88 45.9895 35.8027C48.3566 31.9381 49.5643 27.542 49.4677 22.9527C49.4677 22.2281 49.4194 21.5035 49.3228 20.8272C55.7961 18.0736 62.6559 16.721 69.7572 16.721C76.8585 16.721 83.7183 18.1219 90.1916 20.8272C90.095 21.6967 90.0467 22.6146 90.0467 23.4841C90.0467 27.8319 91.2544 32.0347 93.4766 35.7061C94.7809 37.8317 96.9065 39.3293 99.3219 39.8123C100.771 46.2373 106.568 51.0682 113.428 51.0682C115.264 51.0682 117.003 50.73 118.645 50.102C121.012 56.1889 122.22 62.5656 122.22 69.1355C122.22 75.6088 121.061 81.8889 118.79 87.8308C117.438 87.4926 116.085 87.2994 114.684 87.2511C108.211 86.9129 102.027 89.1834 97.3413 93.6761C92.6553 98.1688 90.0467 104.159 90.0467 110.681C90.0467 112.178 90.1916 113.676 90.4815 115.173C90.6264 115.946 90.5781 116.767 90.3849 117.492C83.8632 120.294 76.9551 121.695 69.7572 121.695C62.6559 121.647 55.6995 120.197 49.1779 117.395ZM113.525 134.158C107.776 134.158 103.138 129.473 103.138 123.772V118.217C106.616 118.12 111.351 117.395 115.119 114.594C117.051 113.144 118.5 111.309 119.515 109.135H120.578C122.413 109.135 123.911 110.632 123.911 112.468V123.82C123.911 129.521 119.273 134.158 113.525 134.158ZM130.191 130.39H126.423C127.437 128.41 128.017 126.188 128.017 123.772V112.42C128.017 108.362 124.732 105.077 120.722 104.98C120.771 104.787 120.771 104.545 120.819 104.352C120.964 103.241 120.191 102.227 119.08 102.033C117.969 101.889 116.954 102.661 116.761 103.773C116.326 107.058 115.022 109.473 112.703 111.212C107.534 115.077 99.2736 113.869 99.177 113.869C98.0659 113.676 97.0031 114.449 96.8582 115.56C96.6649 116.671 97.4379 117.734 98.549 117.879C98.5973 117.879 98.7422 117.927 99.0321 117.927V123.676C99.0321 126.043 99.6117 128.313 100.626 130.294H96.8582C93.9114 130.294 91.5443 127.927 91.5443 124.98C91.5443 123.724 91.979 122.564 92.752 121.598C94.3944 119.569 95.0708 116.912 94.5394 114.255C94.2978 113.048 94.2012 111.792 94.2012 110.584C94.2012 105.222 96.3268 100.246 100.24 96.5746C104.104 92.9032 109.225 91.0191 114.587 91.2607C124.635 91.7921 132.703 100.053 132.896 110.149C132.944 111.598 132.8 112.999 132.51 114.4C131.978 116.961 132.655 119.569 134.345 121.598C135.118 122.564 135.553 123.724 135.553 124.98C135.505 127.975 133.138 130.39 130.191 130.39Z" fill="#264653"/>
<path d="M97.4863 84.7391V66.2853C97.4863 63.5801 95.2642 61.3579 92.5589 61.3579H80.8683V48.2663C80.8683 45.5611 78.6461 43.3872 75.9408 43.3872H47.0525C44.3472 43.3872 42.125 45.6094 42.125 48.2663V64.1598C42.125 66.865 44.3472 69.0872 47.0525 69.0872H53.6224V84.7391C53.6224 87.4444 55.8446 89.6666 58.5498 89.6666H62.4145C63.5256 89.6666 64.4434 88.7487 64.4434 87.6376C64.4434 86.5265 63.5256 85.6087 62.4145 85.6087H58.5498C58.1151 85.6087 57.7286 85.2222 57.7286 84.7874V69.0872H57.9218L63.1391 73.8698C64.057 74.7393 65.2647 75.1741 66.4241 75.1741C67.1004 75.1741 67.7767 75.0292 68.4047 74.7393C70.1921 73.9664 71.3515 72.2273 71.3515 70.2466V69.0872H76.0374C78.3079 69.0872 80.192 67.5414 80.7717 65.4641H92.6555C93.0903 65.4641 93.4767 65.8506 93.4767 66.2853V84.7391C93.4767 85.1739 93.0903 85.5604 92.6555 85.5604H86.9551C86.4237 85.5604 85.9407 85.7536 85.5542 86.0918L80.6267 90.5844C80.2886 90.8743 79.9504 90.826 79.7572 90.7294C79.564 90.6327 79.2741 90.4395 79.2741 90.0047V87.5893C79.2741 86.4782 78.3562 85.5604 77.2451 85.5604H71.8829C70.7718 85.5604 69.854 86.4782 69.854 87.5893C69.854 88.7004 70.7718 89.6183 71.8829 89.6183H75.1679V89.9564C75.1679 91.9371 76.279 93.6279 78.1147 94.4491C78.7427 94.7389 79.4673 94.8839 80.0953 94.8839C81.3031 94.8839 82.4625 94.4491 83.3803 93.5795L87.7281 89.6183H92.6555C95.2642 89.6183 97.4863 87.4444 97.4863 84.7391ZM76.8104 64.1598C76.8104 64.5946 76.4239 64.981 75.9891 64.981H69.2743C68.1632 64.981 67.2453 65.8989 67.2453 67.01V70.2466C67.2453 70.7297 66.9555 70.9229 66.7622 70.9713C66.569 71.0679 66.2309 71.1162 65.8927 70.8263L60.0957 65.5124C59.7092 65.1743 59.2261 64.981 58.6948 64.981H47.0525C46.6177 64.981 46.2312 64.5946 46.2312 64.1598V48.2663C46.2312 47.8316 46.6177 47.4451 47.0525 47.4451H75.9891C76.4239 47.4451 76.8104 47.8316 76.8104 48.2663V64.1598Z" fill="#264653"/>
<path d="M64.637 54.1597H54.444C53.3329 54.1597 52.415 55.0775 52.415 56.1886C52.415 57.2997 53.3329 58.2176 54.444 58.2176H64.637C65.7481 58.2176 66.666 57.2997 66.666 56.1886C66.666 55.0775 65.7481 54.1597 64.637 54.1597Z" fill="#264653"/>
<path d="M86.0857 77.5408C87.1968 77.5408 88.1146 76.6229 88.1146 75.5119C88.1146 74.4008 87.1968 73.4829 86.0857 73.4829H76.4723C75.3612 73.4829 74.4434 74.4008 74.4434 75.5119C74.4434 76.6229 75.3612 77.5408 76.4723 77.5408H86.0857Z" fill="#264653"/>
</svg>
