<svg width="137" height="138" viewBox="0 0 137 138" fill="none" xmlns="http://www.w3.org/2000/svg">
<path d="M92.5777 85.3752C91.107 85.3752 89.9003 86.5819 89.9003 88.0526V106.53C89.9003 113.922 83.9044 119.917 76.5133 119.917H47.6276C46.1569 119.917 44.9502 121.124 44.9502 122.595V127.912L38.5772 121.539C38.1624 120.596 37.2196 119.917 36.126 119.917H18.7418C11.3507 119.917 5.3548 113.922 5.3548 106.53V65.3136C5.3548 57.9224 11.3507 51.9266 18.7418 51.9266H45.7798C47.2505 51.9266 48.4572 50.7199 48.4572 49.2492C48.4572 47.7785 47.2505 46.5718 45.7798 46.5718H18.7418C8.4093 46.5718 0 54.9811 0 65.3136V106.53C0 116.863 8.4093 125.272 18.7418 125.272H34.7685L45.7421 136.246C46.27 136.774 46.9488 137.038 47.6276 137.038C47.9669 137.038 48.3063 136.962 48.6457 136.849C49.6639 136.434 50.305 135.454 50.305 134.36V125.272H76.551C86.8835 125.272 95.2928 116.863 95.2928 106.53V88.0526C95.2551 86.5819 94.0861 85.3752 92.5777 85.3752Z" fill="#264653"/>
<path d="M98.1208 0H91.333C69.8761 0 52.4541 17.4597 52.4541 38.8789C52.4541 60.2981 69.9138 77.7577 91.333 77.7577H98.1208C101.477 77.7577 104.795 77.3429 108.001 76.4756L117.994 86.4687C118.522 86.9967 119.201 87.2606 119.879 87.2606C120.219 87.2606 120.558 87.1852 120.898 87.0721C121.916 86.6573 122.557 85.6768 122.557 84.5832V69.0845C126.78 65.6529 130.325 61.3162 132.776 56.4894C135.567 50.9837 137 45.0633 137 38.8412C137.037 17.4597 119.578 0 98.1208 0ZM118.296 65.7283C117.617 66.2185 117.24 67.0104 117.24 67.8778V78.2103L110.678 71.6487C110.15 71.1585 109.471 70.8568 108.793 70.8568C108.529 70.8568 108.265 70.8945 108.001 70.97C104.833 71.9504 101.477 72.4407 98.1208 72.4407H91.333C72.8174 72.4407 57.7712 57.3944 57.7712 38.8789C57.7712 20.3633 72.8174 5.31709 91.333 5.31709H98.1208C116.636 5.31709 131.683 20.3633 131.683 38.8789C131.683 49.5131 126.78 59.3176 118.296 65.7283Z" fill="#264653"/>
<path d="M106.795 29.3003C106.418 23.6815 101.893 19.1941 96.2738 18.7793C93.1062 18.553 90.0517 19.6466 87.7514 21.796C85.4511 23.9455 84.1689 26.9623 84.1689 30.0922C84.1689 31.5629 85.3757 32.7696 86.8463 32.7696C88.317 32.7696 89.5237 31.5629 89.5237 30.0922C89.5237 28.433 90.2025 26.8492 91.4092 25.7179C92.616 24.5866 94.2375 24.0209 95.9344 24.1341C98.8758 24.3226 101.252 26.6983 101.478 29.6774C101.666 32.6565 99.7431 35.2962 96.8395 35.9373C94.5014 36.4652 92.8422 38.5015 92.8422 40.915V47.3633C92.8422 48.834 94.0489 50.0407 95.5196 50.0407C96.9903 50.0407 98.197 48.834 98.197 47.3633V41.1035C103.552 39.7837 107.172 34.8437 106.795 29.3003Z" fill="#264653"/>
<path d="M97.3666 55.9989C96.8764 55.5087 96.1599 55.207 95.4811 55.207C94.8023 55.207 94.0858 55.5087 93.5956 55.9989C93.1054 56.4892 92.8037 57.2057 92.8037 57.8844C92.8037 58.6009 93.1054 59.2797 93.5956 59.7699C94.0858 60.2602 94.8023 60.5618 95.4811 60.5618C96.1599 60.5618 96.8764 60.2602 97.3666 59.7699C97.8568 59.2797 98.1585 58.5632 98.1585 57.8844C98.1585 57.2057 97.8945 56.4892 97.3666 55.9989Z" fill="#264653"/>
<path d="M73.6092 82.9614H17.1198C15.6491 82.9614 14.4424 84.1681 14.4424 85.6388C14.4424 87.1095 15.6491 88.3162 17.1198 88.3162H73.5714C75.0421 88.3162 76.2488 87.1095 76.2488 85.6388C76.2488 84.1681 75.0798 82.9614 73.6092 82.9614Z" fill="#264653"/>
<path d="M75.4955 98.7245C75.0053 98.2343 74.2888 97.9326 73.61 97.9326C72.8935 97.9326 72.2147 98.2343 71.7245 98.7245C71.2343 99.2147 70.9326 99.9312 70.9326 100.61C70.9326 101.289 71.2343 102.005 71.7245 102.496C72.2147 102.986 72.9312 103.287 73.61 103.287C74.3265 103.287 75.0053 102.986 75.4955 102.496C75.9857 102.005 76.2874 101.326 76.2874 100.61C76.2874 99.9312 75.9857 99.2147 75.4955 98.7245Z" fill="#264653"/>
<path d="M63.0504 97.9326H17.1198C15.6491 97.9326 14.4424 99.1393 14.4424 100.61C14.4424 102.081 15.6491 103.287 17.1198 103.287H63.0504C64.5211 103.287 65.7278 102.081 65.7278 100.61C65.7278 99.1393 64.5588 97.9326 63.0504 97.9326Z" fill="#264653"/>
<path d="M56.1872 67.9907H17.1198C15.6491 67.9907 14.4424 69.1974 14.4424 70.6681C14.4424 72.1388 15.6491 73.3455 17.1198 73.3455H56.1872C57.6579 73.3455 58.8646 72.1388 58.8646 70.6681C58.8646 69.1974 57.6956 67.9907 56.1872 67.9907Z" fill="#264653"/>
</svg>
