<svg width="111" height="139" viewBox="0 0 111 139" fill="none" xmlns="http://www.w3.org/2000/svg">
<path d="M55.3996 13.9C56.6996 13.9 57.6996 12.9 57.6996 11.6V2.3C57.6996 1 56.6996 0 55.3996 0C54.0996 0 53.0996 1 53.0996 2.3V11.5C53.0996 12.8 54.1996 13.9 55.3996 13.9Z" fill="#264653"/>
<path d="M26.9001 10.5999L31.5001 18.5999C32.1001 19.6999 33.5001 20.0999 34.6001 19.4999C35.7001 18.8999 36.1001 17.4999 35.5001 16.3999L30.9001 8.39989C30.3001 7.29989 28.9001 6.89989 27.8001 7.49989C26.6001 7.99989 26.2001 9.39989 26.9001 10.5999Z" fill="#264653"/>
<path d="M8.19951 30.9C8.29951 30.9 8.29951 30.9 8.19951 30.9L16.1995 35.5C17.2995 36.1 18.6995 35.8 19.3995 34.7C19.9995 33.6 19.6995 32.2 18.5995 31.5L10.5995 26.9C9.49951 26.3 8.09951 26.6 7.39951 27.7C6.79951 28.8 7.09951 30.2 8.19951 30.9Z" fill="#264653"/>
<path d="M13.9 55.4001C13.9 54.1001 12.9 53.1001 11.6 53.1001H2.3C1 53.1001 0 54.1001 0 55.4001C0 56.7001 1 57.7001 2.3 57.7001H11.5C12.8 57.7001 13.9 56.7001 13.9 55.4001Z" fill="#264653"/>
<path d="M16.2998 75.4001L8.2998 80.0001C7.1998 80.6001 6.7998 82.0001 7.3998 83.1001C7.9998 84.2001 9.3998 84.6001 10.4998 84.0001L18.4998 79.4001C19.5998 78.8001 19.9998 77.4001 19.3998 76.3001C18.7998 75.1001 17.3998 74.7001 16.2998 75.4001Z" fill="#264653"/>
<path d="M102.6 80L94.5995 75.4C93.4995 74.8 92.0995 75.1 91.3995 76.2C90.7995 77.3 91.0995 78.7 92.1995 79.4L100.2 84C101.3 84.6 102.7 84.3 103.4 83.2C104.1 82.1 103.7 80.6 102.6 80Z" fill="#264653"/>
<path d="M108.5 53.1001H99.3C98 53.1001 97 54.1001 97 55.4001C97 56.7001 98 57.7001 99.3 57.7001H108.5C109.8 57.7001 110.8 56.7001 110.8 55.4001C110.8 54.1001 109.8 53.1001 108.5 53.1001Z" fill="#264653"/>
<path d="M93.4002 35.7998C93.8002 35.7998 94.2002 35.6998 94.6002 35.4998L102.6 30.8998C103.7 30.2998 104.1 28.8998 103.5 27.7998C102.9 26.6998 101.5 26.2998 100.4 26.8998L92.4002 31.4998C91.3002 32.0998 90.9002 33.5998 91.6002 34.6998C91.8002 35.3998 92.6002 35.7998 93.4002 35.7998Z" fill="#264653"/>
<path d="M76.2 19.4C77.3 20 78.7 19.7 79.4 18.6L84 10.6C84.6 9.5 84.3 8.1 83.2 7.4C82.1 6.8 80.7 7.1 80 8.2L75.4 16.2C74.7 17.4 75.1 18.8 76.2 19.4Z" fill="#264653"/>
<path d="M59.9998 92.4002C61.2998 92.4002 62.2998 91.4002 62.2998 90.1002V64.7002H66.9998C72.0998 64.7002 76.1998 60.6002 76.1998 55.5002C76.1998 50.4002 72.0998 46.3002 66.9998 46.3002C61.8998 46.3002 57.7998 50.4002 57.7998 55.5002V60.0002H53.1998V55.4002C53.1998 50.3002 49.0998 46.2002 43.9998 46.2002C38.8998 46.2002 34.7998 50.3002 34.7998 55.4002C34.7998 60.5002 38.8998 64.6002 43.9998 64.6002H48.5998V90.0002C48.5998 91.3002 49.5998 92.3002 50.8998 92.3002C52.1998 92.3002 53.1998 91.3002 53.1998 90.0002V64.7002H57.7998V90.1002C57.6998 91.3002 58.7998 92.4002 59.9998 92.4002ZM62.3998 55.4002C62.3998 52.8002 64.4998 50.8002 66.9998 50.8002C69.5998 50.8002 71.5998 52.9002 71.5998 55.4002C71.5998 57.9002 69.4998 60.0002 66.9998 60.0002H62.3998V55.4002ZM48.4998 60.0002H43.8998C41.2998 60.0002 39.2998 57.9002 39.2998 55.4002C39.2998 52.9002 41.3998 50.8002 43.8998 50.8002C46.3998 50.8002 48.4998 52.9002 48.4998 55.4002V60.0002Z" fill="#264653"/>
<path d="M57.2001 18.5001C36.8001 17.5001 19.5001 33.3 18.5001 53.6C18.0001 65.3 23.0001 76.6001 32.0001 84.0001C33.6001 85.3001 34.6001 87.2001 34.6001 89.3001V94.7001C34.6001 97.6001 36.5001 100.2 39.2001 101.2V103.9C39.2001 105.6 39.8001 107.3 41.0001 108.5C38.6001 111.1 38.6001 115.1 41.0001 117.7C38.4001 120.5 38.6001 124.9 41.4001 127.4C42.7001 128.6 44.3001 129.2 46.1001 129.2C47.3001 129.2 48.4001 128.3 48.4001 127C48.4001 126.5 48.3001 126 48.0001 125.6C47.9001 125.5 47.8001 125.3 47.7001 125.2C47.5001 125 47.3001 124.9 47.1001 124.8C47.0001 124.8 47.0001 124.7 46.9001 124.7C46.7001 124.6 46.4001 124.6 46.2001 124.6C46.2001 124.6 46.2001 124.6 46.1001 124.6C44.8001 124.6 43.8001 123.6 43.8001 122.3C43.8001 121 44.8001 120 46.1001 120H55.3001C56.6001 120 57.6001 119 57.6001 117.7C57.6001 116.4 56.6001 115.4 55.3001 115.4H46.1001C44.8001 115.4 43.8001 114.4 43.8001 113.1C43.8001 111.8 44.8001 110.8 46.1001 110.8H55.3001C56.6001 110.8 57.6001 109.8 57.6001 108.5C57.6001 107.2 56.6001 106.2 55.3001 106.2H46.1001C44.8001 106.2 43.8001 105.2 43.8001 103.9V101.6H55.3001C56.6001 101.6 57.6001 100.6 57.6001 99.3001C57.6001 98.0001 56.6001 97.0001 55.3001 97.0001H41.6001C40.3001 97.0001 39.3001 96.0001 39.3001 94.7001V89.3001C39.3001 85.8001 37.7001 82.6001 35.0001 80.4001C21.2001 69.1001 19.2001 48.7001 30.5001 34.9001C37.0001 27.0001 46.8001 22.7001 57.0001 23.1001C74.1001 24.1001 87.5001 38.1 87.8001 55.2001C87.9001 65 83.5001 74.4001 75.8001 80.5C73.1001 82.7001 71.6001 86.0001 71.6001 89.5001V94.6001C71.6001 95.9001 70.6001 96.9001 69.3001 96.9001H62.4001C61.1001 96.9001 60.1001 97.9 60.1001 99.2001C60.1001 100.5 61.1001 101.5 62.4001 101.5H67.0001V103.8C67.0001 105.1 66 106.1 64.7001 106.1H62.4001C61.1001 106.1 60.1001 107.1 60.1001 108.4C60.1001 109.7 61.1001 110.7 62.4001 110.7H64.7001C66 110.7 67.0001 111.7 67.0001 113C67.0001 114.3 66 115.3 64.7001 115.3H62.4001C61.1001 115.3 60.1001 116.3 60.1001 117.6C60.1001 118.9 61.1001 119.9 62.4001 119.9H64.7001C66 119.9 67.0001 120.9 67.0001 122.2C67.0001 123.5 66 124.5 64.7001 124.5H53.1001C51.8001 124.5 50.8001 125.5 50.8001 126.8C50.8001 128.1 51.8001 129.1 53.1001 129.1H62.0001C60.7001 132.7 56.8001 134.6 53.2001 133.3C52.1001 132.9 51.1001 132.2 50.3001 131.4C49.5001 130.4 48.0001 130.4 47.0001 131.2C46.0001 132 46.0001 133.5 46.8001 134.5C51.0001 139.3 58.3001 139.7 63.1001 135.5C65.1001 133.8 66.4001 131.4 66.8001 128.8C70.4001 127.7 72.4001 123.8 71.3001 120.2C71.0001 119.2 70.5001 118.4 69.8001 117.6C72.2001 115 72.2001 111 69.8001 108.4C71.0001 107.1 71.6001 105.5 71.6001 103.8V101.1C74.4001 100.1 76.2001 97.5001 76.2001 94.6001V89.5001C76.2001 87.4001 77.1001 85.4001 78.7001 84.1001C87.5001 77.1001 92.5001 66.4001 92.4001 55.2001C92.0001 35.7001 76.7001 19.7001 57.2001 18.5001Z" fill="#264653"/>
</svg>
