<svg width="140" height="141" viewBox="0 0 140 141" fill="none" xmlns="http://www.w3.org/2000/svg">
<path d="M44.364 72.3536C44.364 73.6552 45.3964 74.6875 46.698 74.6875H65.3696C66.6712 74.6875 67.7035 73.6552 67.7035 72.3536V53.682C67.7035 48.4306 64.1128 43.8076 59.041 42.4611C64.427 36.9853 64.3372 28.1433 58.9063 22.7123C53.4305 17.2814 44.6333 17.2814 39.1575 22.7123C33.6817 28.1433 33.6369 36.9404 39.0229 42.4611C33.951 43.8076 30.3604 48.4306 30.3604 53.682V61.7162C30.3604 63.0178 31.3927 64.0501 32.6943 64.0501C33.9959 64.0501 35.0282 63.0178 35.0282 61.7162V53.682C35.0282 49.822 38.1701 46.6802 42.0301 46.6802H56.0338C59.8938 46.6802 63.0356 49.822 63.0356 53.682V70.0197H46.698C45.3964 70.0197 44.364 71.052 44.364 72.3536ZM49.0319 23.3407C54.1935 23.3407 58.3677 27.5149 58.3677 32.6765C58.3677 37.8381 54.1935 42.0123 49.0319 42.0123C43.8703 42.0123 39.6961 37.8381 39.6961 32.6765C39.6961 27.5149 43.8703 23.3407 49.0319 23.3407Z" fill="#264653"/>
<path d="M56.0341 58.35C57.3357 58.35 58.368 57.3177 58.368 56.0161C58.368 54.7145 57.3357 53.6821 56.0341 53.6821H51.3662C50.0646 53.6821 49.0322 54.7145 49.0322 56.0161C49.0322 57.3177 50.0646 58.35 51.3662 58.35H56.0341Z" fill="#264653"/>
<path d="M137.947 118.18L109.894 90.1277C107.785 88.108 104.643 87.5694 101.95 88.7812L89.5621 76.3934C104.374 54.4902 99.1223 24.7323 77.6679 9.24749C56.2584 -6.19246 26.4108 -1.88364 10.2079 19.077C-5.95023 40.0376 -2.58396 70.0199 17.883 86.8512C18.8704 87.6591 20.3516 87.5245 21.1595 86.537C21.9674 85.5496 21.8327 84.0685 20.8453 83.2605C2.03905 67.8206 -0.878385 40.2172 14.2923 21.2314C29.418 2.20077 57.0215 -1.07573 76.2316 13.8705C95.3969 28.7719 99.0325 56.3304 84.3556 75.7201C83.817 76.4831 83.2335 77.2013 82.6051 77.8745C82.5602 77.9194 82.5153 78.0092 82.4256 78.054C81.0791 79.625 79.5979 81.0612 78.027 82.4526C77.9372 82.4975 77.8923 82.5873 77.8026 82.6322C77.0844 83.2157 76.3663 83.7991 75.6481 84.3377C67.9731 90.1726 58.5924 93.3594 48.9424 93.3594C48.2243 93.3594 47.4612 93.3145 46.7431 93.2696C45.4415 93.1798 44.3643 94.1673 44.2745 95.4689C44.1847 96.7705 45.1722 97.8477 46.4738 97.9375C47.2817 97.9824 48.0896 98.0272 48.9424 98.0272C58.727 98.0272 68.2424 95.1098 76.3663 89.634L90.0558 103.324C90.9535 104.221 92.4346 104.221 93.3772 103.324L103.296 93.4042C104.239 92.5066 105.675 92.5066 106.618 93.4042L134.67 121.456C135.568 122.354 135.568 123.835 134.67 124.733L124.796 134.652C124.347 135.101 123.763 135.326 123.135 135.326C122.507 135.326 121.923 135.101 121.474 134.652L103.072 116.25C102.174 115.352 100.693 115.397 99.7955 116.295C98.8979 117.193 98.8979 118.629 99.7506 119.571L118.153 137.974C120.891 140.712 125.334 140.712 128.072 137.974L137.947 128.054C140.684 125.361 140.684 120.918 137.947 118.18ZM86.7793 80.2085L98.3593 91.7884L91.7614 98.3863L80.1814 86.8063C82.6051 84.8315 84.8044 82.5873 86.7793 80.2085Z" fill="#264653"/>
<path d="M49.0322 84.0233C47.7306 84.0233 46.6982 85.0556 46.6982 86.3573C46.6982 87.6589 47.7306 88.6912 49.0322 88.6912C61.3303 88.7361 72.9103 83.0808 80.4058 73.341C87.9014 63.6462 90.5046 50.989 87.3628 39.0948C87.0486 37.8381 85.747 37.0751 84.5351 37.4342C83.2784 37.7483 82.5154 39.05 82.8744 40.2618C85.6572 50.7197 83.3681 61.8957 76.7254 70.4685C70.0826 79.0412 59.8491 84.0682 49.0322 84.0233Z" fill="#264653"/>
<path d="M68.1973 14.3192C50.5581 4.53456 28.3856 9.56152 16.671 25.9889C4.95636 42.4163 7.46984 65.0376 22.5058 78.5027C23.1342 79.0862 23.987 79.2657 24.7949 78.9964C25.6028 78.7271 26.1863 78.0539 26.3658 77.246C26.5454 76.4381 26.2312 75.5853 25.6028 75.0018C12.407 63.1525 10.2077 43.2242 20.531 28.7268C30.8542 14.2294 50.3786 9.78594 65.9532 18.4036C67.0752 19.032 68.5115 18.628 69.1399 17.5059C69.7683 16.3389 69.3194 14.9475 68.1973 14.3192Z" fill="#264653"/>
<path d="M21.0244 123.701C19.7228 123.701 18.6904 124.733 18.6904 126.035C18.6904 127.336 19.7228 128.369 21.0244 128.369H35.0281C36.3297 128.369 37.362 127.336 37.362 126.035C37.362 124.733 36.3297 123.701 35.0281 123.701H21.0244Z" fill="#264653"/>
<path d="M65.3701 102.695H39.6967V72.354C39.6967 71.2768 38.9786 70.3791 37.9462 70.1098C36.9139 69.8405 35.8367 70.2894 35.2981 71.1871L17.2998 102.695H13.9784C10.1184 102.695 6.97656 105.837 6.97656 109.697V133.037C6.97656 136.897 10.1184 140.038 13.9784 140.038H65.3252C69.1852 140.038 72.3271 136.897 72.3271 133.037V128.369C72.3271 127.067 71.2948 126.035 69.9931 126.035C68.6915 126.035 67.6592 127.067 67.6592 128.369V133.037C67.6592 134.338 66.6269 135.371 65.3252 135.371H14.0233C12.7217 135.371 11.6893 134.338 11.6893 133.037V109.697C11.6893 108.396 12.7217 107.363 14.0233 107.363H18.6912C19.544 107.363 20.307 106.914 20.7109 106.196L35.0288 81.1512V105.029C35.0288 106.331 36.0611 107.363 37.3628 107.363H65.3701C66.6717 107.363 67.7041 108.396 67.7041 109.697V114.365C67.7041 115.667 68.7364 116.699 70.038 116.699C71.3396 116.699 72.372 115.667 72.372 114.365V109.697C72.372 105.837 69.2301 102.695 65.3701 102.695Z" fill="#264653"/>
<path d="M44.3639 116.699C44.3639 115.397 43.3316 114.365 42.03 114.365H25.6923C24.3907 114.365 23.3584 115.397 23.3584 116.699C23.3584 118 24.3907 119.033 25.6923 119.033H42.03C43.3316 119.033 44.3639 117.955 44.3639 116.699Z" fill="#264653"/>
<path d="M63.0359 116.699C63.0359 115.397 62.0036 114.365 60.702 114.365H51.3662C50.0646 114.365 49.0322 115.397 49.0322 116.699C49.0322 118 50.0646 119.033 51.3662 119.033H60.702C61.9587 119.033 63.0359 117.955 63.0359 116.699Z" fill="#264653"/>
<path d="M44.3642 128.369H53.7C55.0016 128.369 56.034 127.336 56.034 126.035C56.034 124.733 55.0016 123.701 53.7 123.701H44.3642C43.0626 123.701 42.0303 124.733 42.0303 126.035C42.0303 127.336 43.0626 128.369 44.3642 128.369Z" fill="#264653"/>
<path d="M102.668 18.6728H123.673C124.975 18.6728 126.007 17.6405 126.007 16.3388C126.007 15.0372 124.975 14.0049 123.673 14.0049H102.668C101.366 14.0049 100.334 15.0372 100.334 16.3388C100.334 17.6405 101.411 18.6728 102.668 18.6728Z" fill="#264653"/>
<path d="M102.668 30.3427H123.673C124.975 30.3427 126.007 29.3104 126.007 28.0088C126.007 26.7071 124.975 25.6748 123.673 25.6748H102.668C101.366 25.6748 100.334 26.7071 100.334 28.0088C100.334 29.3104 101.411 30.3427 102.668 30.3427Z" fill="#264653"/>
<path d="M123.674 37.3447H112.004C110.702 37.3447 109.67 38.3771 109.67 39.6787C109.67 40.9803 110.702 42.0126 112.004 42.0126H123.674C124.975 42.0126 126.008 40.9803 126.008 39.6787C126.008 38.3771 124.975 37.3447 123.674 37.3447Z" fill="#264653"/>
<path d="M123.674 49.0142H112.004C110.702 49.0142 109.67 50.0465 109.67 51.3481C109.67 52.6497 110.702 53.6821 112.004 53.6821H123.674C124.975 53.6821 126.008 52.6497 126.008 51.3481C126.008 50.0465 124.975 49.0142 123.674 49.0142Z" fill="#264653"/>
<path d="M107.336 67.6859C106.034 67.6859 105.002 68.7182 105.002 70.0198C105.002 71.3215 106.034 72.3538 107.336 72.3538H121.34C123.898 72.3538 126.007 70.2443 126.007 67.6859V63.018C126.007 60.4596 123.898 58.3501 121.34 58.3501H107.336C106.034 58.3501 105.002 59.3824 105.002 60.684C105.002 61.9857 106.034 63.018 107.336 63.018H121.34V67.6859H107.336Z" fill="#264653"/>
</svg>
