<svg xmlns="http://www.w3.org/2000/svg" viewBox="0 0 97 138.57"><defs><style>.cls-1{fill:#264653;}</style></defs><g id="Capa_2" data-name="Capa 2"><g id="Capa_1-2" data-name="Capa 1"><path class="cls-1" d="M90.07,0H6.93A6.8,6.8,0,0,0,0,6.93V131.64a6.8,6.8,0,0,0,6.93,6.93H70.21L97,111.78V6.93A6.8,6.8,0,0,0,90.07,0Zm2.31,109.93L71.6,130.72V115.48a2.18,2.18,0,0,1,2.3-2.31H85.45v-4.62H73.9A6.8,6.8,0,0,0,67,115.48V134h-60a2.18,2.18,0,0,1-2.31-2.31V6.93A2.18,2.18,0,0,1,6.93,4.62H90.07a2.18,2.18,0,0,1,2.31,2.31Z"/><path class="cls-1" d="M34.64,13.86H62.36v4.62H34.64Z"/><path class="cls-1" d="M18.48,78.85h60v4.62h-60Z"/><path class="cls-1" d="M18.48,68.63h60v4.61h-60Z"/><path class="cls-1" d="M18.48,89.08h60V93.7h-60Z"/><path class="cls-1" d="M18.48,48.17h60v4.62h-60Z"/><path class="cls-1" d="M18.48,37.94h60v4.62h-60Z"/><path class="cls-1" d="M18.48,27.71h60v4.62h-60Z"/><path class="cls-1" d="M18.48,58.4h60V63h-60Z"/><path class="cls-1" d="M18.48,99.31h60v4.62h-60Z"/><path class="cls-1" d="M18.48,110.86H57.74v4.62H18.48Z"/></g></g></svg>