<svg xmlns="http://www.w3.org/2000/svg" viewBox="0 0 186.99 138.57"><defs><style>.cls-1{fill:#264653;}</style></defs><g id="Capa_2" data-name="Capa 2"><g id="Capa_1-2" data-name="Capa 1"><path class="cls-1" d="M89.55,135.85V121.1c0-.08-.11-.16-.12-.24a18.92,18.92,0,0,0-10.35-15.22l-.34-.13L63.53,100A16.77,16.77,0,0,0,73.76,89.26,16.79,16.79,0,0,0,91.33,72.51c0-5.07-3-9.76-6.61-12.9a10.34,10.34,0,0,0,1.71-5.71,10.52,10.52,0,0,0-.29-2.49A8.61,8.61,0,0,0,79.42,45L80,36.77a34.4,34.4,0,1,0-68.64,0l.57,8.3a8.56,8.56,0,0,0-6.73,6.34,10.47,10.47,0,0,0-.3,2.49,10.37,10.37,0,0,0,1.52,5.42A16.78,16.78,0,0,0,9,87.38a16.49,16.49,0,0,0,4.4,1.56,17.32,17.32,0,0,0,4.19.33,16.73,16.73,0,0,0,10.28,10.79l-15.1,5.45-.31.13A18.94,18.94,0,0,0,2.1,120.87c0,.07-.07.15-.07.23v14.75a2.85,2.85,0,0,0,3,2.72H86.49A2.93,2.93,0,0,0,89.55,135.85ZM67.67,121.1v11.76H23.43V121.1c0-.08.1-.16.09-.24a18.84,18.84,0,0,0-5.06-11.35l16.27-5.84,8.2,10.94v9.48a2.86,2.86,0,1,0,5.71,0v-9.48l8.09-11L73,109.51a19,19,0,0,0-5.23,11.36C67.78,120.94,67.67,121,67.67,121.1ZM45.8,93.18a33.46,33.46,0,0,0,7.12-.77v6.91l-7.13,9.55-7.14-9.55V92.4a33.68,33.68,0,0,0,7.15.78ZM79.68,82.31a10.66,10.66,0,0,1-2.88,1,11.21,11.21,0,0,1-4.65,0,2.85,2.85,0,0,0-3.4,2.17,2.21,2.21,0,0,0,0,.25,11.08,11.08,0,0,1-7.25,9,10.79,10.79,0,0,1-1.4.42,13.45,13.45,0,0,1-1.42.19V90.58A36.52,36.52,0,0,0,68.5,84a32.35,32.35,0,0,0,9.69-19.84,10.26,10.26,0,0,0,2.17-.73c2.8,2.21,5.28,5.74,5.28,9.12a11,11,0,0,1-6,9.8Zm-55-67.49A28.69,28.69,0,0,1,74.29,36.38l-.57,8.31c-5.32-.8-9.29-2.89-11.82-6.27-5.29-7-3-17.64-2.94-17.74a2.86,2.86,0,0,0-5-2.46L46,28l0,0A22.62,22.62,0,0,1,28.1,36.63a17.33,17.33,0,0,0-10.77,3.78l-.28-4A28.43,28.43,0,0,1,24.7,14.82Zm-14,38a2.85,2.85,0,0,1,2.88-2.15,3,3,0,0,1,.6,0,2.36,2.36,0,0,0,.53,0H15s0,.08,0,.08l0,0h.43l.27-.05.09,0,.34-.12.05,0,.26-.14.09-.06a1.46,1.46,0,0,0,.24-.17l.06,0a2.29,2.29,0,0,0,.23-.21l0,0,.06-.07a2.5,2.5,0,0,0,.18-.24.43.43,0,0,0,0-.07c.07-.11.13-.22.19-.33h0A11.6,11.6,0,0,1,28.1,42.34,28.28,28.28,0,0,0,50.39,31.58l2.4-2.93a24.73,24.73,0,0,0,4.52,13.17c4,5.37,10.36,8.35,18.88,8.86,0,0,.06,0,.09,0s.06-.06.08-.06h.22a3.13,3.13,0,0,0,.53,0,3,3,0,0,1,3.48,2.17,4.89,4.89,0,0,1,.13,1.15A4.76,4.76,0,0,1,76,58.66h-.52a2.84,2.84,0,0,0-2.85,2.75,27,27,0,0,1-53.9,0,2.84,2.84,0,0,0-2.86-2.75h-.53a4.75,4.75,0,0,1-4.73-4.75A4.86,4.86,0,0,1,10.73,52.77Zm11.92,33a2.85,2.85,0,0,0-3.2-2.46l-.25,0a11.21,11.21,0,0,1-4.65,0,11.07,11.07,0,0,1-3.86-20.09,10.44,10.44,0,0,0,2.5.87A32.5,32.5,0,0,0,23,84a31.07,31.07,0,0,0,10,6.62v4.75a11,11,0,0,1-1.5-.19,11.22,11.22,0,0,1-1.51-.41,11.06,11.06,0,0,1-7.28-9ZM7.73,121.23a13.68,13.68,0,0,1,5-9.14c2.83,2.2,5,5.52,5,9.14v11.63h-10Zm76.11,11.63H73.38V121.23a14,14,0,0,1,5.23-9.14,14,14,0,0,1,5.23,9.14Z"/><path class="cls-1" d="M118,138.57h62.32a6.7,6.7,0,0,0,6.7-6.69v-9.33a6.69,6.69,0,0,0-6.7-6.69H118a6.69,6.69,0,0,0-6.7,6.69v9.33A6.7,6.7,0,0,0,118,138.57Zm3.78-15.14h54.76a2.91,2.91,0,0,1,2.91,2.91v1.75a2.91,2.91,0,0,1-2.91,2.91H121.75a2.91,2.91,0,0,1-2.91-2.91v-1.75A2.91,2.91,0,0,1,121.75,123.43Z"/><path class="cls-1" d="M114.18,32.57h9.33a2.91,2.91,0,0,1,2.91,2.91v1.75a2.91,2.91,0,0,1-2.91,2.91h-9.33a2.91,2.91,0,0,1-2.91-2.91V35.48A2.91,2.91,0,0,1,114.18,32.57Z"/><path class="cls-1" d="M136.89,32.57h47.19A2.91,2.91,0,0,1,187,35.48v1.75a2.91,2.91,0,0,1-2.91,2.91H136.89a2.9,2.9,0,0,1-2.9-2.91V35.48A2.9,2.9,0,0,1,136.89,32.57Z"/><path class="cls-1" d="M114.18,55.29h9.33a2.91,2.91,0,0,1,2.91,2.9V60a2.92,2.92,0,0,1-2.91,2.91h-9.33A2.91,2.91,0,0,1,111.27,60V58.19A2.9,2.9,0,0,1,114.18,55.29Z"/><path class="cls-1" d="M136.89,55.29h47.19a2.91,2.91,0,0,1,2.91,2.9V60a2.92,2.92,0,0,1-2.91,2.91H136.89A2.91,2.91,0,0,1,134,60V58.19A2.9,2.9,0,0,1,136.89,55.29Z"/><path class="cls-1" d="M114.18,78h9.33a2.91,2.91,0,0,1,2.91,2.91v1.75a2.91,2.91,0,0,1-2.91,2.91h-9.33a2.91,2.91,0,0,1-2.91-2.91V80.91A2.91,2.91,0,0,1,114.18,78Z"/><path class="cls-1" d="M136.89,78h47.19A2.91,2.91,0,0,1,187,80.91v1.75a2.91,2.91,0,0,1-2.91,2.91H136.89a2.9,2.9,0,0,1-2.9-2.91V80.91A2.9,2.9,0,0,1,136.89,78Z"/><path class="cls-1" d="M114.18,100.71h9.33a2.92,2.92,0,0,1,2.91,2.91v1.76a2.92,2.92,0,0,1-2.91,2.91h-9.33a2.91,2.91,0,0,1-2.91-2.91v-1.76A2.91,2.91,0,0,1,114.18,100.71Z"/><path class="cls-1" d="M136.89,100.71h47.19a2.92,2.92,0,0,1,2.91,2.91v1.76a2.92,2.92,0,0,1-2.91,2.91H136.89a2.91,2.91,0,0,1-2.9-2.91v-1.76A2.91,2.91,0,0,1,136.89,100.71Z"/></g></g></svg>