<svg xmlns="http://www.w3.org/2000/svg" viewBox="0 0 288 288.03"><defs><style>.cls-1{fill:#264653;}</style></defs><g id="Capa_2" data-name="Capa 2"><g id="Capa_1-2" data-name="Capa 1"><g id="Elearning-monitor-screen-online-education"><path class="cls-1" d="M273.6,62.43H162.43L160.66,52.3a28.81,28.81,0,1,0-33.32,0l-1.77,10.13H19.2A19.2,19.2,0,0,0,0,81.63v148.8a14.45,14.45,0,0,0,14.4,14.4H124.8v14.4H96a4.79,4.79,0,0,0-4.8,4.8v19.2A4.8,4.8,0,0,0,96,288h96a4.8,4.8,0,0,0,4.8-4.8V264a4.79,4.79,0,0,0-4.8-4.8H163.2v-14.4H273.6a14.45,14.45,0,0,0,14.4-14.4V76.83A14.44,14.44,0,0,0,273.6,62.43ZM124.8,28.83A19.2,19.2,0,1,1,144,48,19.2,19.2,0,0,1,124.8,28.83Zm27.89,33.6H135.31l1-5.86a28.42,28.42,0,0,0,15.36,0Zm34.51,206.4v9.6H100.8v-9.6Zm-52.8-9.6v-14.4h19.2v14.4Zm144-28.8a4.8,4.8,0,0,1-4.8,4.8H14.4a4.8,4.8,0,0,1-4.8-4.8v-4.8H278.4Zm0-14.4H9.6V81.63A9.62,9.62,0,0,1,19.2,72H273.6a4.79,4.79,0,0,1,4.8,4.8Z"/><path class="cls-1" d="M144,43.23a14.4,14.4,0,1,0-14.4-14.4A14.4,14.4,0,0,0,144,43.23ZM144,24a4.8,4.8,0,1,1-4.8,4.8A4.79,4.79,0,0,1,144,24Z"/><path class="cls-1" d="M268.8,76.83H19.2a4.79,4.79,0,0,0-4.8,4.8v124.8a4.8,4.8,0,0,0,4.8,4.8H268.8a4.8,4.8,0,0,0,4.8-4.8V81.63A4.79,4.79,0,0,0,268.8,76.83ZM131.57,201.63H43.2v-4.8a14.44,14.44,0,0,1,14.4-14.4h7.2l13,17.28a4.8,4.8,0,0,0,6.72,1,5.13,5.13,0,0,0,1-1l13-17.28h10.46l8.5,6a4.56,4.56,0,0,0,3.74.82,4.62,4.62,0,0,0,3.12-2.21l7.2-11.66,10.42,7.77ZM62.4,124.83h38.4v14.4a19.2,19.2,0,0,1-38.4,0Zm-13.78-9.6A19,19,0,0,1,79.1,105.1a4.83,4.83,0,0,0,4.08.91,15.23,15.23,0,0,1,3.22-.38,14.44,14.44,0,0,1,13.58,9.6Zm24.44,57.6L74.21,167A27.67,27.67,0,0,0,89,167l1.15,5.81Zm13.34,9.6-4.8,6.38-4.8-6.38Zm50.06-15.22,1.59-2.54a6.09,6.09,0,0,1,8-2.26,6.19,6.19,0,0,1,2.72,8.33l-.08.17-2.12,3.79ZM264,201.63H142.56l14.5-26.07a15.48,15.48,0,0,0,1.24-12.29,14.75,14.75,0,0,0-3.55-6l17.52-35-8.54-4.32L146.4,152.52a15.66,15.66,0,0,0-16.56,7.11l-11.09,18-5.57-3.93a4.44,4.44,0,0,0-2.78-.91H99.94l-2-9.94a28.8,28.8,0,0,0,12.43-23.66V120a24,24,0,0,0-24-24,23.28,23.28,0,0,0-3.12.24,28,28,0,0,0-16.08-5A28.79,28.79,0,0,0,38.4,120a4.8,4.8,0,0,0,4.8,4.8h9.6v14.4a28.8,28.8,0,0,0,12.43,23.66l-2,9.94H57.6a24,24,0,0,0-24,24v4.8H24V86.43H264Z"/><path class="cls-1" d="M177.6,96H216v9.6H177.6Z"/><path class="cls-1" d="M225.6,96h28.8v9.6H225.6Z"/><path class="cls-1" d="M177.6,115.23h19.2v9.6H177.6Z"/><path class="cls-1" d="M206.4,115.23h48v9.6h-48Z"/><path class="cls-1" d="M177.6,134.43h28.8V144H177.6Z"/><path class="cls-1" d="M216,134.43h38.4V144H216Z"/><path class="cls-1" d="M177.6,153.63h76.8v9.6H177.6Z"/><path class="cls-1" d="M177.6,172.83h76.8v9.6H177.6Z"/></g></g></g></svg>