<svg xmlns="http://www.w3.org/2000/svg" viewBox="0 0 143.21 138.57"><defs><style>.cls-1{fill:#264653;}</style></defs><g id="Capa_2" data-name="Capa 2"><g id="Capa_1-2" data-name="Capa 1"><path class="cls-1" d="M81.15,50.26H62.06a2.39,2.39,0,0,0-2.39,2.39v66.83a2.39,2.39,0,0,0,2.39,2.38H81.15a2.39,2.39,0,0,0,2.39-2.38V52.65A2.39,2.39,0,0,0,81.15,50.26Zm-2.39,66.83H64.44V55H78.76Z"/><path class="cls-1" d="M138.43,40.71H119.34A2.39,2.39,0,0,0,117,43.1v76.38a2.39,2.39,0,0,0,2.39,2.38h19.09a2.39,2.39,0,0,0,2.39-2.38V43.1A2.39,2.39,0,0,0,138.43,40.71Zm-2.38,76.38H121.73V45.49h14.32Z"/><path class="cls-1" d="M109.79,93.22H90.7a2.39,2.39,0,0,0-2.39,2.39v23.87a2.39,2.39,0,0,0,2.39,2.38h19.09a2.39,2.39,0,0,0,2.39-2.38V95.61A2.39,2.39,0,0,0,109.79,93.22Zm-2.39,23.87H93.08V98H107.4Z"/><path class="cls-1" d="M23.87,59.81H4.77a2.39,2.39,0,0,0-2.38,2.38v57.29a2.39,2.39,0,0,0,2.38,2.38h19.1a2.38,2.38,0,0,0,2.38-2.38V62.19A2.38,2.38,0,0,0,23.87,59.81Zm-2.39,57.28H7.16V64.58H21.48Z"/><path class="cls-1" d="M52.51,74.13H33.41A2.39,2.39,0,0,0,31,76.52v43a2.39,2.39,0,0,0,2.38,2.38h19.1a2.39,2.39,0,0,0,2.39-2.38v-43A2.39,2.39,0,0,0,52.51,74.13Zm-2.39,43H35.8V78.9H50.12Z"/><path class="cls-1" d="M129,0a9.61,9.61,0,0,0-6.64,16.63L102.57,53a8.8,8.8,0,0,0-5.44.26L78.7,25.56A9.55,9.55,0,1,0,63,23.3L48.51,35.36A9.42,9.42,0,0,0,35.8,36.85L23.65,30.77A9.7,9.7,0,1,0,21.48,35L33.63,41.1A9.55,9.55,0,1,0,51.55,39L66,27a9.21,9.21,0,0,0,8.68,1.24L93.14,55.88a9.55,9.55,0,1,0,13.61-.62l19.81-36.33a9.14,9.14,0,0,0,2.33.3A9.62,9.62,0,1,0,129,0ZM14.32,33.55a4.77,4.77,0,1,1,4.77-4.77A4.76,4.76,0,0,1,14.32,33.55ZM43,47.87a4.77,4.77,0,1,1,4.78-4.77A4.77,4.77,0,0,1,43,47.87ZM71.6,24a4.78,4.78,0,1,1,4.78-4.78A4.78,4.78,0,0,1,71.6,24Zm28.64,43A4.78,4.78,0,1,1,105,62.19,4.78,4.78,0,0,1,100.24,67Zm28.65-52.51a4.78,4.78,0,1,1,4.77-4.77A4.78,4.78,0,0,1,128.89,14.46Z"/><path class="cls-1" d="M140.82,124.25H2.39A2.39,2.39,0,0,0,0,126.64v9.54a2.39,2.39,0,0,0,2.39,2.39H140.82a2.39,2.39,0,0,0,2.39-2.39v-9.54A2.39,2.39,0,0,0,140.82,124.25Zm-2.39,9.55H4.77V129H138.43Z"/></g></g></svg>