<svg xmlns="http://www.w3.org/2000/svg" viewBox="0 0 138.44 138.57"><defs><style>.cls-1{fill:#264653;}</style></defs><g id="Capa_2" data-name="Capa 2"><g id="Capa_1-2" data-name="Capa 1"><path class="cls-1" d="M34,41.65a34,34,0,0,0-34,34C0,87.26,5.53,99.77,16.45,112.8c1.62,1.94,3.23,3.73,4.78,5.37-7,1.92-11.27,5.38-11.27,9.41,0,7.14,12.37,11,24,11s24-3.85,24-11c0-4-4.23-7.49-11.27-9.41a110.43,110.43,0,0,0,8.71-10.36,2,2,0,1,0-3.27-2.41,109.87,109.87,0,0,1-10.49,12.12,2.1,2.1,0,0,0-.89.88c-2.93,2.89-5.4,5-6.8,6.19-1.39-1.15-3.82-3.26-6.72-6.11a2,2,0,0,0-1-1C17,108.21,4.06,92.22,4.06,75.63a29.92,29.92,0,0,1,59.83,0c0,7.2-2.46,15-7.3,23.12a2,2,0,0,0,3.5,2.08C65.3,92.05,68,83.57,68,75.63A34,34,0,0,0,34,41.65Zm-1.25,87.17a2,2,0,0,0,2.49,0,102.71,102.71,0,0,0,8.17-7.27c6.85,1.4,10.54,4.09,10.54,6,0,1.45-2,3.15-5.18,4.45A40.38,40.38,0,0,1,34,134.51c-12.18,0-19.95-4.11-19.95-6.93,0-1.94,3.69-4.63,10.54-6A107.71,107.71,0,0,0,32.73,128.82Z"/><path class="cls-1" d="M34,60.86a14.64,14.64,0,0,0-8.84,2.93,2,2,0,0,0,2.43,3.26,10.71,10.71,0,1,1-4.3,8.58,10.85,10.85,0,0,1,.41-3,2,2,0,1,0-3.9-1.12A14.77,14.77,0,1,0,34,60.86Z"/><path class="cls-1" d="M122.53,59c1-1.11,2.1-2.3,3.17-3.58,8.46-10.1,12.74-19.81,12.74-28.87A26.58,26.58,0,0,0,87.37,16.24a2,2,0,1,0,3.74,1.58,22.52,22.52,0,0,1,43.27,8.76c0,16.79-17.63,32.88-22.52,37-1.08-.91-2.77-2.4-4.76-4.35a2,2,0,0,0-.91-.9c-7-7.06-16.85-19.21-16.85-31.77a2,2,0,0,0-4.06,0c0,9.06,4.29,18.77,12.75,28.87,1.07,1.28,2.13,2.47,3.16,3.58-5.23,1.58-8.26,4.26-8.26,7.48,0,2.72,2.21,5.12,6.22,6.75a34.68,34.68,0,0,0,12.71,2.17,34.74,34.74,0,0,0,12.72-2.17c4-1.63,6.21-4,6.21-6.75C130.79,63.29,127.76,60.61,122.53,59ZM111.86,71.36c-9.62,0-14.86-3.2-14.86-4.85,0-1.07,2.38-3,7.48-4.12a78.48,78.48,0,0,0,6.14,5.45,2,2,0,0,0,1.24.42,2.07,2.07,0,0,0,1.25-.42,79.55,79.55,0,0,0,6.13-5.45,18.44,18.44,0,0,1,5.62,2c1.17.71,1.87,1.5,1.87,2.09C126.73,68.16,121.48,71.36,111.86,71.36Z"/><path class="cls-1" d="M111.86,14.76a11.83,11.83,0,1,0,11.83,11.82A11.83,11.83,0,0,0,111.86,14.76Zm0,19.58a7.76,7.76,0,1,1,7.76-7.76A7.77,7.77,0,0,1,111.86,34.34Z"/><path class="cls-1" d="M85.5,64.48h-.92a15,15,0,0,0-2,.13,2,2,0,0,0,.26,4l.27,0a12.29,12.29,0,0,1,1.49-.1h.92a2,2,0,1,0,0-4.06Z"/><path class="cls-1" d="M78.79,125.44h0l-2.69,0a2,2,0,0,0,0,4.06h2.7a2,2,0,0,0,0-4.07Z"/><path class="cls-1" d="M87.92,90.8H85.23a2,2,0,0,0,0,4.06h2.69a2,2,0,0,0,0-4.06Z"/><path class="cls-1" d="M77.15,68.62a2,2,0,0,0-2.87-.12,15.07,15.07,0,0,0-2,2.32A2,2,0,0,0,73.88,74a2,2,0,0,0,1.65-.85,11.06,11.06,0,0,1,1.5-1.7A2,2,0,0,0,77.15,68.62Z"/><path class="cls-1" d="M89.52,125.39h0l-2.68,0a2,2,0,0,0,0,4.06h2.69a2,2,0,0,0,0-4.07Z"/><path class="cls-1" d="M68.05,125.49H65.36a2,2,0,1,0,0,4.07h2.69a2,2,0,0,0,0-4.07Z"/><path class="cls-1" d="M78.65,89.09a10.93,10.93,0,0,1-1.79-1.4,2,2,0,1,0-2.81,2.93,14.92,14.92,0,0,0,2.43,1.91,2,2,0,0,0,1.08.31,2,2,0,0,0,1.72-1A2,2,0,0,0,78.65,89.09Z"/><path class="cls-1" d="M73.65,81.81a11.75,11.75,0,0,1-.2-2.14v-.11a2,2,0,0,0-2-2.06h0a2,2,0,0,0-2,2v.16a15.87,15.87,0,0,0,.28,2.92,2,2,0,0,0,2,1.64,2.56,2.56,0,0,0,.39,0A2,2,0,0,0,73.65,81.81Z"/><path class="cls-1" d="M98.65,90.8H96a2,2,0,0,0,0,4.06h2.68a2,2,0,0,0,0-4.06Z"/><path class="cls-1" d="M131.27,94.94a18.88,18.88,0,0,0-2.48-1.67,2,2,0,1,0-2,3.54,15.38,15.38,0,0,1,2,1.32,2,2,0,1,0,2.51-3.19Z"/><path class="cls-1" d="M123.73,126.85a2,2,0,0,0-2.29-1.73,15.16,15.16,0,0,1-2,.14H119a2,2,0,0,0,0,4.06h.39a18.4,18.4,0,0,0,2.57-.18A2,2,0,0,0,123.73,126.85Z"/><path class="cls-1" d="M132.7,121.14a2,2,0,0,0-2.87-.07,15.56,15.56,0,0,1-1.84,1.49,2,2,0,0,0,1.16,3.7,2,2,0,0,0,1.16-.36,19.14,19.14,0,0,0,2.32-1.89A2,2,0,0,0,132.7,121.14Z"/><path class="cls-1" d="M136.65,111.27a2,2,0,0,0-2.37,1.62,14,14,0,0,1-.62,2.28,2,2,0,0,0,1.24,2.6,2,2,0,0,0,.68.11,2,2,0,0,0,1.91-1.35,19,19,0,0,0,.79-2.89A2,2,0,0,0,136.65,111.27Z"/><path class="cls-1" d="M137.86,104.74a18.6,18.6,0,0,0-1.05-2.81,2,2,0,1,0-3.68,1.71,16,16,0,0,1,.83,2.22,2,2,0,0,0,1.95,1.47,2.23,2.23,0,0,0,.56-.08A2,2,0,0,0,137.86,104.74Z"/><path class="cls-1" d="M109.39,90.8H106.7a2,2,0,0,0,0,4.06h2.69a2,2,0,0,0,0-4.06Z"/><path class="cls-1" d="M100.26,125.35h-2.7a2,2,0,0,0,0,4.06h2.7a2,2,0,0,0,0-4.06Z"/><path class="cls-1" d="M120.21,90.82l-.86,0h-1.91a2,2,0,0,0,0,4.06h1.91l.68,0h.09a2,2,0,0,0,.09-4.06Z"/><path class="cls-1" d="M111,125.3H108.3a2,2,0,0,0,0,4.06H111a2,2,0,0,0,0-4.06Z"/></g></g></svg>