<svg xmlns="http://www.w3.org/2000/svg" viewBox="0 0 110.86 138.57"><defs><style>.cls-1{fill:#264653;}</style></defs><g id="Capa_2" data-name="Capa 2"><g id="Capa_1-2" data-name="Capa 1"><path class="cls-1" d="M55.43,13.86a2.32,2.32,0,0,0,2.31-2.31V2.31a2.31,2.31,0,0,0-4.62,0v9.24A2.31,2.31,0,0,0,55.43,13.86Z"/><path class="cls-1" d="M26.87,10.58l4.62,8a2.31,2.31,0,1,0,4-2.28v0l-4.62-8a2.31,2.31,0,0,0-4,2.29Z"/><path class="cls-1" d="M8.25,30.85l0,0,8,4.62a2.31,2.31,0,0,0,2.34-4h0l-8-4.62a2.31,2.31,0,1,0-2.33,4Z"/><path class="cls-1" d="M13.86,55.43a2.31,2.31,0,0,0-2.31-2.31H2.31a2.31,2.31,0,0,0,0,4.62h9.24A2.32,2.32,0,0,0,13.86,55.43Z"/><path class="cls-1" d="M16.3,75.35l0,0L8.27,80a2.31,2.31,0,0,0,2.28,4h0l8-4.62a2.31,2.31,0,0,0-2.28-4Z"/><path class="cls-1" d="M102.61,80h0l-8-4.62a2.31,2.31,0,1,0-2.34,4l0,0,8,4.62a2.31,2.31,0,0,0,2.34-4Z"/><path class="cls-1" d="M108.55,53.12H99.31a2.31,2.31,0,0,0,0,4.62h9.24a2.31,2.31,0,0,0,0-4.62Z"/><path class="cls-1" d="M93.43,35.8a2.34,2.34,0,0,0,1.16-.31l8-4.62a2.31,2.31,0,0,0-2.29-4l0,0-8,4.62a2.31,2.31,0,0,0,1.15,4.31Z"/><path class="cls-1" d="M76.21,19.43h0a2.32,2.32,0,0,0,3.16-.85h0l4.62-8a2.31,2.31,0,1,0-4-2.33v0l-4.62,8A2.32,2.32,0,0,0,76.21,19.43Z"/><path class="cls-1" d="M60.05,92.38a2.31,2.31,0,0,0,2.31-2.31V64.67H67a9.24,9.24,0,1,0-9.24-9.24v4.62H53.12V55.43a9.24,9.24,0,1,0-9.24,9.24H48.5v25.4a2.31,2.31,0,1,0,4.62,0V64.67h4.62v25.4A2.3,2.3,0,0,0,60.05,92.38Zm2.31-36.95A4.62,4.62,0,1,1,67,60.05H62.36ZM48.5,60.05H43.88a4.62,4.62,0,1,1,4.62-4.62Z"/><path class="cls-1" d="M57.22,18.52A37,37,0,0,0,32,84a6.89,6.89,0,0,1,2.64,5.28v5.42a6.92,6.92,0,0,0,4.62,6.5v2.74a6.94,6.94,0,0,0,1.8,4.62,6.82,6.82,0,0,0,0,9.23,6.9,6.9,0,0,0,5.13,11.55,2.25,2.25,0,0,0,1.9-3.55,2.48,2.48,0,0,0-.26-.4,2.72,2.72,0,0,0-.64-.42l-.21-.09a2.49,2.49,0,0,0-.72-.14l-.07,0a2.31,2.31,0,0,1,0-4.62h9.24a2.31,2.31,0,1,0,0-4.62H46.19a2.31,2.31,0,1,1,0-4.61h9.24a2.31,2.31,0,0,0,0-4.62H46.19a2.31,2.31,0,0,1-2.31-2.31v-2.31H55.43a2.31,2.31,0,1,0,0-4.62H41.57a2.32,2.32,0,0,1-2.31-2.31V89.27a11.48,11.48,0,0,0-4.33-8.85A32.34,32.34,0,0,1,57,23.14,32.7,32.7,0,0,1,87.76,55.23a32.16,32.16,0,0,1-12,25.32,11.48,11.48,0,0,0-4.17,9v5.15A2.31,2.31,0,0,1,69.28,97H62.36a2.31,2.31,0,0,0,0,4.62H67v2.31a2.32,2.32,0,0,1-2.31,2.31H62.36a2.31,2.31,0,0,0,0,4.62h2.31a2.31,2.31,0,1,1,0,4.61H62.36a2.31,2.31,0,1,0,0,4.62h2.31a2.31,2.31,0,0,1,0,4.62H53.12a2.31,2.31,0,1,0,0,4.62H62a6.93,6.93,0,0,1-8.84,4.23,7,7,0,0,1-2.87-1.94,2.31,2.31,0,0,0-3.45,3.08,11.52,11.52,0,0,0,20-5.73,6.86,6.86,0,0,0,4.5-8.6,6.94,6.94,0,0,0-1.49-2.59,6.82,6.82,0,0,0,0-9.23,6.84,6.84,0,0,0,1.8-4.62v-2.74a6.92,6.92,0,0,0,4.62-6.5V89.54a7,7,0,0,1,2.45-5.4A36.71,36.71,0,0,0,92.38,55.2,37.38,37.38,0,0,0,57.22,18.52Z"/></g></g></svg>