<svg xmlns="http://www.w3.org/2000/svg" viewBox="0 0 138.57 138.57"><defs><style>.cls-1{fill:#264653;}</style></defs><g id="Capa_2" data-name="Capa 2"><g id="Capa_1-2" data-name="Capa 1"><path class="cls-1" d="M135.86,101.22h-9.2V94.77a15.71,15.71,0,0,0-5.09-11.57V53.5c0-13.33-11.07-24.17-24.68-24.17S72.21,40.17,72.21,53.5V83.2a15.71,15.71,0,0,0-5.09,11.57v6.45H61.57a2.71,2.71,0,0,0,0,5.42H74.16V124a2.7,2.7,0,0,0,2.7,2.7h9.47a2.71,2.71,0,1,0,0-5.41H79.57V106.63h34.64v14.62H106.9a2.71,2.71,0,0,0,0,5.41h10a2.7,2.7,0,0,0,2.7-2.7V106.63h13.54v26.53H66v-8.74a17.26,17.26,0,0,0-14.12-17l-7.1-1.31a3.45,3.45,0,0,1-1-.33,2.75,2.75,0,0,0-.53-.36,3.25,3.25,0,0,1-1.21-2.5,18.43,18.43,0,0,0,9.29-16V76.53a18.4,18.4,0,0,0-36.8,0V87a18.38,18.38,0,0,0,9.29,16,3.32,3.32,0,0,1-1.22,2.52,2.59,2.59,0,0,0-.52.34,3.08,3.08,0,0,1-1,.34l-7.11,1.31A17.25,17.25,0,0,0,0,124.42v11.44a2.71,2.71,0,0,0,2.71,2.71H135.86a2.71,2.71,0,0,0,2.71-2.71V103.93A2.71,2.71,0,0,0,135.86,101.22ZM77.63,53.5h0a19.27,19.27,0,0,1,38.52,0V80a15.07,15.07,0,0,0-2.33-.62l-6.34-1.18a2.65,2.65,0,0,1-2.15-2.26,16.78,16.78,0,0,0,8.34-14.49V52.71a2.69,2.69,0,0,0-1.34-2.33l-9.41-5.53a2.71,2.71,0,0,0-3.45.59A12.71,12.71,0,0,1,89.7,50H82.82a2.71,2.71,0,0,0-2.71,2.71v8.71a16.78,16.78,0,0,0,8.33,14.49,2.64,2.64,0,0,1-2.14,2.26L80,79.35a13.76,13.76,0,0,0-2.33.62V53.5Zm24.52,18a2.66,2.66,0,0,0-1.25.57,11.37,11.37,0,0,1-4,.73,11.17,11.17,0,0,1-4-.74,2.75,2.75,0,0,0-1.24-.56,11.37,11.37,0,0,1-6.11-10.07v-6H89.7A18.12,18.12,0,0,0,102,50.6l6.24,3.66v7.16A11.37,11.37,0,0,1,102.15,71.49Zm.08,9.75-5.34,7.29-5.34-7.29a8.12,8.12,0,0,0,2-3.37,17.12,17.12,0,0,0,6.69,0A8.08,8.08,0,0,0,102.23,81.24Zm19,20H72.53V94.77a10.28,10.28,0,0,1,8.41-10.1l5.64-1L94.71,94.7a2.7,2.7,0,0,0,4.36,0l8.12-11.08,5.65,1a10.28,10.28,0,0,1,8.41,10.1v6.45ZM20,87V76.53a13,13,0,1,1,26,0V87a13,13,0,1,1-26,0Zm17.41,19.42L33,107.65l-4.43-1.26a7.88,7.88,0,0,0,.49-1.44A18.22,18.22,0,0,0,37,105,8.72,8.72,0,0,0,37.44,106.39Zm23.18,26.77H5.41v-4.33H23.92a2.71,2.71,0,0,0,0-5.42H5.46a11.82,11.82,0,0,1,9.64-10.62l7.1-1.32a8.81,8.81,0,0,0,2.11-.67l8,2.27a2.79,2.79,0,0,0,1.48,0l8-2.27a8.31,8.31,0,0,0,2.1.67l7.11,1.32a11.82,11.82,0,0,1,9.68,11.63Z"/><path class="cls-1" d="M72.13,0H38.3A10.7,10.7,0,0,0,27.61,10.69v3.93H10.69A10.7,10.7,0,0,0,0,25.31V40.19A10.7,10.7,0,0,0,10.69,50.88h.14V60a2.71,2.71,0,0,0,1.67,2.5,2.62,2.62,0,0,0,1,.2,2.7,2.7,0,0,0,1.92-.79l11-11h18A10.7,10.7,0,0,0,55.21,40.19V33.56h4.2l8,8A2.71,2.71,0,0,0,72,39.6v-6h.14A10.71,10.71,0,0,0,82.82,22.87V10.69A10.71,10.71,0,0,0,72.13,0ZM49.8,40.19a5.29,5.29,0,0,1-5.28,5.28H25.37a2.75,2.75,0,0,0-1.91.79l-7.22,7.22v-5.3a2.71,2.71,0,0,0-2.71-2.71H10.69a5.29,5.29,0,0,1-5.28-5.28V25.31A5.29,5.29,0,0,1,10.69,20H44.52a5.29,5.29,0,0,1,5.28,5.28ZM77.4,22.87a5.28,5.28,0,0,1-5.27,5.28H69.28a2.7,2.7,0,0,0-2.7,2.7v2.22l-4.13-4.13a2.71,2.71,0,0,0-1.92-.79H55.21V25.31A10.7,10.7,0,0,0,44.52,14.62H33V10.69A5.29,5.29,0,0,1,38.3,5.41H72.13a5.28,5.28,0,0,1,5.27,5.28V22.87Z"/><path class="cls-1" d="M92.7,58.55a2.69,2.69,0,0,0-3.83,0,2.71,2.71,0,0,0,1.92,4.62,2.7,2.7,0,0,0,1.91-.8,2.7,2.7,0,0,0,0-3.82Z"/><path class="cls-1" d="M104.91,58.55a2.74,2.74,0,0,0-1.92-.8,2.7,2.7,0,0,0-1.91.8,2.7,2.7,0,0,0,0,3.82,2.7,2.7,0,0,0,1.91.8,2.71,2.71,0,0,0,1.92-4.62Z"/><path class="cls-1" d="M101,64.69a2.69,2.69,0,0,0-3.82,0,.51.51,0,0,1-.72,0,2.7,2.7,0,1,0-3.82,3.83,5.91,5.91,0,0,0,8.36,0A2.7,2.7,0,0,0,101,64.69Z"/><path class="cls-1" d="M98.81,122a2.77,2.77,0,0,0-1.92-.79A2.71,2.71,0,0,0,94.18,124a2.7,2.7,0,0,0,.8,1.91,2.73,2.73,0,0,0,1.91.79,2.77,2.77,0,0,0,1.92-.79,2.72,2.72,0,0,0,0-3.83Z"/><path class="cls-1" d="M34.64,25.17H13.53a2.71,2.71,0,0,0,0,5.42H34.64a2.71,2.71,0,1,0,0-5.42Z"/><path class="cls-1" d="M43.32,35.71a2.73,2.73,0,0,0-1.91-.79,2.77,2.77,0,0,0-1.92.79,2.73,2.73,0,0,0-.79,1.91,2.7,2.7,0,0,0,2.71,2.71,2.7,2.7,0,0,0,2.7-2.71A2.69,2.69,0,0,0,43.32,35.71Z"/><path class="cls-1" d="M31.39,34.92H13.53a2.71,2.71,0,0,0,0,5.41H31.39a2.71,2.71,0,1,0,0-5.41Z"/><path class="cls-1" d="M35.27,124.21a2.68,2.68,0,1,0,.8,1.91A2.7,2.7,0,0,0,35.27,124.21Z"/></g></g></svg>