<svg xmlns="http://www.w3.org/2000/svg" viewBox="0 0 138.57 138.57"><defs><style>.cls-1{fill:#264653;}</style></defs><g id="Capa_2" data-name="Capa 2"><g id="Capa_1-2" data-name="Capa 1"><path class="cls-1" d="M93.64,86.34a2.7,2.7,0,0,0-2.7,2.7v18.68A13.55,13.55,0,0,1,77.4,121.25H48.18a2.7,2.7,0,0,0-2.7,2.7v5.39L39,122.88a2.7,2.7,0,0,0-2.48-1.63H19A13.55,13.55,0,0,1,5.41,107.72V66A13.55,13.55,0,0,1,19,52.51H46.28a2.71,2.71,0,1,0,0-5.42H19A19,19,0,0,0,0,66v41.68a19,19,0,0,0,19,18.94h16.2l11.11,11.12a2.7,2.7,0,0,0,1.92.79,2.86,2.86,0,0,0,1-.2,2.71,2.71,0,0,0,1.67-2.5v-9.21H77.4a19,19,0,0,0,18.95-18.94V89A2.7,2.7,0,0,0,93.64,86.34Z"/><path class="cls-1" d="M99.23,0H92.38a39.34,39.34,0,0,0,0,78.67h6.85a39.44,39.44,0,0,0,10-1.28l10.12,10.12A2.71,2.71,0,0,0,124,85.59V69.93A39.73,39.73,0,0,0,134.3,57.19,39.36,39.36,0,0,0,99.23,0Zm20.39,66.45a2.72,2.72,0,0,0-1.08,2.17V79.06l-6.62-6.62a2.71,2.71,0,0,0-2.71-.67,33.94,33.94,0,0,1-10,1.49H92.38a33.93,33.93,0,0,1,0-67.85h6.85a33.92,33.92,0,0,1,20.39,61Z"/><path class="cls-1" d="M108,29.61A11.49,11.49,0,0,0,97.37,19,11.37,11.37,0,0,0,88.75,22a11.53,11.53,0,0,0-3.64,8.38,2.71,2.71,0,1,0,5.41,0,6,6,0,0,1,6.48-6,6,6,0,0,1,.9,11.93,5.12,5.12,0,0,0-4,5v6.5a2.71,2.71,0,1,0,5.41,0V41.56A11.4,11.4,0,0,0,108,29.61Z"/><path class="cls-1" d="M98.48,56.64a2.69,2.69,0,0,0-3.83,0,2.73,2.73,0,0,0-.79,1.91,2.7,2.7,0,0,0,2.71,2.71,2.73,2.73,0,0,0,1.91-.79,2.77,2.77,0,0,0,.79-1.92A2.73,2.73,0,0,0,98.48,56.64Z"/><path class="cls-1" d="M74.43,83.9H17.32a2.71,2.71,0,1,0,0,5.41H74.43a2.71,2.71,0,0,0,0-5.41Z"/><path class="cls-1" d="M76.34,99.85a2.73,2.73,0,0,0-1.91-.79,2.77,2.77,0,0,0-1.92.79,2.73,2.73,0,0,0-.79,1.91,2.7,2.7,0,0,0,2.71,2.71,2.71,2.71,0,0,0,1.91-4.62Z"/><path class="cls-1" d="M63.78,99.06H17.32a2.71,2.71,0,1,0,0,5.41H63.78a2.71,2.71,0,1,0,0-5.41Z"/><path class="cls-1" d="M56.84,68.74H17.32a2.71,2.71,0,0,0,0,5.42H56.84a2.71,2.71,0,0,0,0-5.42Z"/></g></g></svg>