<svg xmlns="http://www.w3.org/2000/svg" viewBox="0 0 138.57 138.57"><defs><style>.cls-1{fill:#264653;}</style></defs><g id="Capa_2" data-name="Capa 2"><g id="Capa_1-2" data-name="Capa 1"><path class="cls-1" d="M134.51,65.23H126A56.91,56.91,0,0,0,73.35,12.6V4.06a4.06,4.06,0,1,0-8.12,0V12.6A56.92,56.92,0,0,0,12.6,65.23H4.06a4.06,4.06,0,1,0,0,8.12H12.6A56.91,56.91,0,0,0,65.23,126v8.54a4.06,4.06,0,1,0,8.12,0V126A56.9,56.9,0,0,0,126,73.35h8.54a4.06,4.06,0,1,0,0-8.12Zm-61.16,52.6v-12a4.06,4.06,0,1,0-8.12,0v12A48.8,48.8,0,0,1,20.74,73.35h12a4.06,4.06,0,0,0,0-8.12h-12A48.8,48.8,0,0,1,65.23,20.74v12a4.06,4.06,0,1,0,8.12,0v-12a48.8,48.8,0,0,1,44.48,44.49h-12a4.06,4.06,0,1,0,0,8.12h12a48.79,48.79,0,0,1-44.48,44.48Z"/><path class="cls-1" d="M90.28,58.11,78.9,55.32l-6.16-10a4.07,4.07,0,0,0-6.91,0l-6.16,10L48.29,58.11a4.06,4.06,0,0,0-2.13,6.56l7.57,8.94-.87,11.68a4.05,4.05,0,0,0,5.58,4.06l10.84-4.43,10.85,4.43a4.05,4.05,0,0,0,5.58-4.06l-.87-11.68,7.57-8.94a4.06,4.06,0,0,0-2.13-6.56ZM77.57,69.63a4.16,4.16,0,0,0-.95,2.93l.51,6.79-6.31-2.58a4.08,4.08,0,0,0-3.07,0l-6.31,2.58L62,72.56a4.12,4.12,0,0,0-1-2.93l-4.41-5.2,6.62-1.62A4,4,0,0,0,65.7,61l3.59-5.8L72.87,61a4,4,0,0,0,2.49,1.8L82,64.43Z"/></g></g></svg>