<svg width="95" height="44" viewBox="0 0 95 44" fill="none" xmlns="http://www.w3.org/2000/svg">
<g clip-path="url(#clip0)">
<path d="M2.05604 40.7159C1.78187 40.7159 1.5077 40.6473 1.30207 40.5788C0.273933 40.1675 -0.274408 38.9337 0.136848 37.9055L13.8454 3.83853C14.2566 2.81035 15.4904 2.26199 16.5185 2.67326C17.5467 3.08453 18.095 4.31835 17.6837 5.34652L3.97523 39.4135C3.63252 40.236 2.87855 40.7159 2.05604 40.7159Z" fill="#444444"/>
<path d="M41.1252 40.7159C40.3027 40.7159 39.5487 40.236 39.206 39.4135L25.4975 5.34653C25.0862 4.31836 25.566 3.08454 26.6627 2.67327C27.6908 2.262 28.9246 2.74181 29.3359 3.83854L43.0444 37.9055C43.4556 38.9337 42.9758 40.1675 41.8792 40.5788C41.6735 40.7159 41.3994 40.7159 41.1252 40.7159Z" fill="#444444"/>
<path d="M28.7877 32.2848H15.0792C13.914 32.2848 13.0229 31.3937 13.0229 30.2284C13.0229 29.0632 13.914 28.1721 15.0792 28.1721H28.7877C29.953 28.1721 30.844 29.0632 30.844 30.2284C30.844 31.3937 29.953 32.2848 28.7877 32.2848Z" fill="#444444"/>
<path d="M79.0978 43.252C73.5458 43.252 67.9939 41.1271 63.8128 36.9459C55.3821 28.5148 55.3821 14.8058 63.8128 6.30616C72.2435 -2.1249 86.0206 -2.1249 94.4513 6.30616C95.2053 7.06016 95.2053 8.29397 94.4513 9.04797C93.6973 9.80197 92.4636 9.80197 91.7096 9.04797C84.7868 2.1249 73.5458 2.1249 66.5545 9.04797C59.6317 15.971 59.6317 27.281 66.5545 34.2041C73.4773 41.1271 84.7183 41.1271 91.7096 34.2041C92.4636 33.4501 93.6973 33.4501 94.4513 34.2041C95.2053 34.9581 95.2053 36.1919 94.4513 36.9459C90.2017 41.1957 84.6497 43.252 79.0978 43.252Z" fill="#444444"/>
</g>
<defs>
<clipPath id="clip0">
<rect width="95" height="43.252" fill="white"/>
</clipPath>
</defs>
</svg>
