<?xml version="1.0" encoding="utf-8"?>
<!-- Generator: Adobe Illustrator 24.2.3, SVG Export Plug-In . SVG Version: 6.00 Build 0)  -->
<svg version="1.1" id="Capa_1" xmlns="http://www.w3.org/2000/svg" xmlns:xlink="http://www.w3.org/1999/xlink" x="0px" y="0px"
	 viewBox="0 0 95 44" style="enable-background:new 0 0 95 44;" xml:space="preserve">
<style type="text/css">
	.st0{clip-path:url(#SVGID_2_);}
	.st1{fill:#FFFFFF;}
</style>
<g>
	<defs>
		<rect id="SVGID_1_" width="95" height="43.3"/>
	</defs>
	<clipPath id="SVGID_2_">
		<use xlink:href="#SVGID_1_"  style="overflow:visible;"/>
	</clipPath>
	<g class="st0">
		<path class="st1" d="M2.1,40.7c-0.3,0-0.5-0.1-0.8-0.1c-1-0.4-1.6-1.6-1.2-2.7L13.8,3.8c0.4-1,1.6-1.6,2.7-1.2
			c1,0.4,1.6,1.6,1.2,2.7L4,39.4C3.6,40.2,2.9,40.7,2.1,40.7z"/>
		<path class="st1" d="M41.1,40.7c-0.8,0-1.6-0.5-1.9-1.3L25.5,5.3c-0.4-1,0.1-2.3,1.2-2.7c1-0.4,2.3,0.1,2.7,1.2L43,37.9
			c0.4,1-0.1,2.3-1.2,2.7C41.7,40.7,41.4,40.7,41.1,40.7z"/>
		<path class="st1" d="M28.8,32.3H15.1c-1.2,0-2.1-0.9-2.1-2.1c0-1.2,0.9-2.1,2.1-2.1h13.7c1.2,0,2.1,0.9,2.1,2.1
			C30.8,31.4,30,32.3,28.8,32.3z"/>
		<path class="st1" d="M79.1,43.3c-5.6,0-11.1-2.1-15.3-6.3c-8.4-8.4-8.4-22.1,0-30.6c8.4-8.4,22.2-8.4,30.6,0c0.8,0.8,0.8,2,0,2.7
			s-2,0.8-2.7,0c-6.9-6.9-18.2-6.9-25.2,0c-6.9,6.9-6.9,18.2,0,25.2c6.9,6.9,18.2,6.9,25.2,0c0.8-0.8,2-0.8,2.7,0
			c0.8,0.8,0.8,2,0,2.7C90.2,41.2,84.6,43.3,79.1,43.3z"/>
	</g>
</g>
</svg>
